<svg xmlns="http://www.w3.org/2000/svg" width="800" height="620" viewBox="0 0 800 620" fill="none">
  <rect width="800" height="620" rx="28" fill="#F3F7F6"/>
  <circle cx="400" cy="312" r="233" fill="#E7F0ED"/>
  <path d="M0 494c101-39 177-50 273-35 112 18 189 72 303 56 95-13 161-57 224-70v175H0V494Z" fill="#DCE9E5"/>
  <path d="M48 115h205v265H48z" fill="#fff" stroke="#C9D9D5" stroke-width="3"/>
  <path d="M48 115h205v44H48z" fill="#0D4D7A"/>
  <circle cx="73" cy="137" r="5" fill="#F2B544"/><circle cx="91" cy="137" r="5" fill="#fff" opacity=".75"/><circle cx="109" cy="137" r="5" fill="#fff" opacity=".45"/>
  <text x="69" y="190" fill="#16354A" font-family="Arial,sans-serif" font-size="16" font-weight="700">MY CARE PLAN</text>
  <rect x="69" y="209" width="105" height="9" rx="4.5" fill="#DDE7E4"/><rect x="69" y="227" width="151" height="8" rx="4" fill="#E7EEEC"/>
  <circle cx="79" cy="264" r="11" fill="#FFF0D0"/><path d="m74 264 4 4 7-8" stroke="#D28A13" stroke-width="2.5" stroke-linecap="round" stroke-linejoin="round"/>
  <rect x="99" y="259" width="105" height="8" rx="4" fill="#DDE7E4"/><rect x="99" y="274" width="75" height="7" rx="3.5" fill="#E7EEEC"/>
  <circle cx="79" cy="311" r="11" fill="#FCE8E4"/><path d="M75 307l8 8m0-8-8 8" stroke="#C46B5D" stroke-width="2.5" stroke-linecap="round"/>
  <rect x="99" y="306" width="119" height="8" rx="4" fill="#DDE7E4"/><rect x="99" y="321" width="89" height="7" rx="3.5" fill="#E7EEEC"/>
  <rect x="533" y="101" width="218" height="157" rx="18" fill="#fff" stroke="#D6E2DF" stroke-width="3"/>
  <text x="557" y="135" fill="#16354A" font-family="Arial,sans-serif" font-size="15" font-weight="700">MEDICATIONS</text>
  <rect x="557" y="153" width="48" height="69" rx="9" fill="#FFF0D0"/>
  <path d="M566 153v-8c0-6 5-11 11-11h8c6 0 11 5 11 11v8" stroke="#D28A13" stroke-width="4"/>
  <path d="M569 181h24" stroke="#D28A13" stroke-width="4" stroke-linecap="round"/>
  <text x="621" y="177" fill="#536A73" font-family="Arial,sans-serif" font-size="13">Morning dose</text>
  <text x="621" y="198" fill="#C46B5D" font-family="Arial,sans-serif" font-size="13" font-weight="700">MISSED</text>
  <circle cx="706" cy="194" r="15" fill="#FCE8E4"/><path d="M706 185v10l6 4" stroke="#C46B5D" stroke-width="2.5" stroke-linecap="round"/>
  <rect x="562" y="284" width="189" height="96" rx="16" fill="#fff" stroke="#D6E2DF" stroke-width="3"/>
  <circle cx="590" cy="316" r="15" fill="#F6D8C8"/><path d="M578 343c2-10 8-15 12-15s10 5 12 15" fill="#59AEA3"/>
  <text x="616" y="314" fill="#16354A" font-family="Arial,sans-serif" font-size="13" font-weight="700">CARE TEAM</text>
  <text x="616" y="335" fill="#71838A" font-family="Arial,sans-serif" font-size="12">No recent updates</text>
  <path d="M576 357h151" stroke="#E7EEEC" stroke-width="2"/>
  <circle cx="714" cy="357" r="5" fill="#E8A020"/><circle cx="729" cy="357" r="5" fill="#C9D9D5"/>
  <path d="M250 284c39-44 61-72 103-74m94 4c28 8 40 15 72 37m-249 100c32 19 50 32 77 48m150-24c24-4 37-11 58-25" stroke="#E8A020" stroke-width="4" stroke-linecap="round" stroke-dasharray="2 13"/>
  <circle cx="339" cy="210" r="8" fill="#E8A020"/><circle cx="519" cy="252" r="8" fill="#E8A020"/><circle cx="347" cy="362" r="8" fill="#E8A020"/><circle cx="505" cy="375" r="8" fill="#E8A020"/>
  <path d="M275 489v-92c0-16 13-29 29-29h192c16 0 29 13 29 29v92" fill="#0D4D7A"/>
  <path d="M292 488v-83c0-8 6-14 14-14h188c8 0 14 6 14 14v83" fill="#22668D"/>
  <path d="M263 477h274v79c0 15-12 27-27 27H290c-15 0-27-12-27-27v-79Z" fill="#0D4D7A"/>
  <path d="M263 494h274v62c0 15-12 27-27 27H290c-15 0-27-12-27-27v-62Z" fill="#16577C"/>
  <circle cx="394" cy="268" r="56" fill="#F1C6A7"/>
  <path d="M339 264c1-45 28-72 63-72 32 0 54 23 57 59-13-6-25-18-32-33-18 21-48 34-88 34v12Z" fill="#52616B"/>
  <path d="M350 264c11 6 23 9 37 9 32 0 55-13 68-33v29c0 35-26 62-61 62s-60-27-60-62v-5c5 1 10 1 16 0Z" fill="#F1C6A7"/>
  <path d="M374 274h2m37 0h2" stroke="#16354A" stroke-width="5" stroke-linecap="round"/>
  <path d="M384 298c7 5 15 5 22 0" stroke="#B56E5C" stroke-width="3" stroke-linecap="round"/>
  <path d="M351 326c13 17 27 25 43 25 18 0 34-9 47-27l28 15c19 10 31 30 31 52v13H287v-12c0-24 14-45 36-55l28-11Z" fill="#F4F8FB"/>
  <path d="M366 334c7 12 17 18 29 18s22-6 30-18l14 12-44 54-43-54 14-12Z" fill="#59AEA3"/>
  <path d="m367 345 28 25 29-25" stroke="#fff" stroke-width="3"/>
  <path d="M405 380v39" stroke="#D7E4E1" stroke-width="3" stroke-linecap="round"/>
  <path d="M410 385c23-20 48-17 64 0" stroke="#0D4D7A" stroke-width="3" stroke-linecap="round" stroke-dasharray="3 7"/>
  <circle cx="394" cy="374" r="13" fill="#E8A020"/><path d="M394 367v8l5 3" stroke="#fff" stroke-width="2.5" stroke-linecap="round"/>
  <rect x="323" y="432" width="142" height="40" rx="20" fill="#fff" stroke="#D6E2DF" stroke-width="2"/>
  <circle cx="344" cy="452" r="8" fill="#E8A020"/><path d="M344 448v5l3 2" stroke="#fff" stroke-width="1.7" stroke-linecap="round"/>
  <text x="361" y="457" fill="#536A73" font-family="Arial,sans-serif" font-size="12" font-weight="700">WAITING FOR CARE</text>
  <path d="M385 489v61m-44 7h89" stroke="#0D4D7A" stroke-width="10" stroke-linecap="round"/>
  <path d="M306 583h61m54 0h61" stroke="#0D4D7A" stroke-width="11" stroke-linecap="round"/>
  <path d="M50 421h174" stroke="#C9D9D5" stroke-width="3" stroke-linecap="round"/>
  <circle cx="673" cy="443" r="38" fill="#FFF0D0"/><path d="M673 421v24m0 13v1" stroke="#D28A13" stroke-width="5" stroke-linecap="round"/>
  <text x="623" y="499" fill="#536A73" font-family="Arial,sans-serif" font-size="13" font-weight="700">CARE FEELS</text>
  <text x="623" y="518" fill="#536A73" font-family="Arial,sans-serif" font-size="13" font-weight="700">DISCONNECTED</text>
</svg>
