<svg width="88" height="87" viewBox="0 0 88 87" fill="none" xmlns="http://www.w3.org/2000/svg">
<g filter="url(#filter0_d_18427_32)">
<rect x="4" y="3" width="80" height="79" rx="15" fill="#E9F7F5"/>
</g>
<circle cx="44" cy="43" r="19.5" stroke="#01B7A2" stroke-width="3"/>
<circle cx="44" cy="43" r="8" stroke="#01B7A2" stroke-width="4"/>
<path d="M54 29.1391V33H58.4645C59.1275 33 59.7634 32.7366 60.2322 32.2678L62 30.5C62.9226 29.5774 62.2692 28 60.9645 28C60.1557 28 59.5 27.3443 59.5 26.5355V26.3891C59.5 24.9539 57.7648 24.2352 56.75 25.25L54.8055 27.1945C54.2897 27.7103 54 28.4097 54 29.1391Z" fill="#01B7A2"/>
<path d="M44 43L54 33M54 33V29.1391C54 28.4097 54.2897 27.7103 54.8055 27.1945L56.75 25.25C57.7648 24.2352 59.5 24.9539 59.5 26.3891V26.5355C59.5 27.3443 60.1557 28 60.9645 28C62.2692 28 62.9226 29.5774 62 30.5L60.2322 32.2678C59.7634 32.7366 59.1275 33 58.4645 33H54Z" stroke="#00BDA8" stroke-width="2" stroke-linecap="round"/>
<defs>
<filter id="filter0_d_18427_32" x="0" y="0" width="88" height="87" filterUnits="userSpaceOnUse" color-interpolation-filters="sRGB">
<feFlood flood-opacity="0" result="BackgroundImageFix"/>
<feColorMatrix in="SourceAlpha" type="matrix" values="0 0 0 0 0 0 0 0 0 0 0 0 0 0 0 0 0 0 127 0" result="hardAlpha"/>
<feOffset dy="1"/>
<feGaussianBlur stdDeviation="2"/>
<feComposite in2="hardAlpha" operator="out"/>
<feColorMatrix type="matrix" values="0 0 0 0 0 0 0 0 0 0 0 0 0 0 0 0 0 0 0.09 0"/>
<feBlend mode="normal" in2="BackgroundImageFix" result="effect1_dropShadow_18427_32"/>
<feBlend mode="normal" in="SourceGraphic" in2="effect1_dropShadow_18427_32" result="shape"/>
</filter>
</defs>
</svg>
